<svg xmlns="http://www.w3.org/2000/svg" width="480" height="480" viewBox="0 0 480 480"><rect width="480" height="480" fill="#3155e7"/><g opacity=".9"><ellipse cx="240" cy="250" rx="25" ry="15" fill="none" stroke="#d5fa65" stroke-width="2" transform="rotate(-35 240 250)"/><ellipse cx="240" cy="250" rx="33" ry="19" fill="none" stroke="#d5fa65" stroke-width="2" transform="rotate(-35 240 250)"/><ellipse cx="240" cy="250" rx="41" ry="23" fill="none" stroke="#d5fa65" stroke-width="2" transform="rotate(-35 240 250)"/><ellipse cx="240" cy="250" rx="49" ry="27" fill="none" stroke="#d5fa65" stroke-width="2" transform="rotate(-35 240 250)"/><ellipse cx="240" cy="250" rx="57" ry="31" fill="none" stroke="#d5fa65" stroke-width="2" transform="rotate(-35 240 250)"/><ellipse cx="240" cy="250" rx="65" ry="35" fill="none" stroke="#d5fa65" stroke-width="2" transform="rotate(-35 240 250)"/><ellipse cx="240" cy="250" rx="73" ry="39" fill="none" stroke="#d5fa65" stroke-width="2" transform="rotate(-35 240 250)"/><ellipse cx="240" cy="250" rx="81" ry="43" fill="none" stroke="#d5fa65" stroke-width="2" transform="rotate(-35 240 250)"/><ellipse cx="240" cy="250" rx="89" ry="47" fill="none" stroke="#d5fa65" stroke-width="2" transform="rotate(-35 240 250)"/><ellipse cx="240" cy="250" rx="97" ry="51" fill="none" stroke="#d5fa65" stroke-width="2" transform="rotate(-35 240 250)"/><ellipse cx="240" cy="250" rx="105" ry="55" fill="none" stroke="#d5fa65" stroke-width="2" transform="rotate(-35 240 250)"/><ellipse cx="240" cy="250" rx="113" ry="59" fill="none" stroke="#d5fa65" stroke-width="2" transform="rotate(-35 240 250)"/><ellipse cx="240" cy="250" rx="121" ry="63" fill="none" stroke="#d5fa65" stroke-width="2" transform="rotate(-35 240 250)"/><ellipse cx="240" cy="250" rx="129" ry="67" fill="none" stroke="#d5fa65" stroke-width="2" transform="rotate(-35 240 250)"/><ellipse cx="240" cy="250" rx="137" ry="71" fill="none" stroke="#d5fa65" stroke-width="2" transform="rotate(-35 240 250)"/><ellipse cx="240" cy="250" rx="145" ry="75" fill="none" stroke="#d5fa65" stroke-width="2" transform="rotate(-35 240 250)"/><ellipse cx="240" cy="250" rx="153" ry="79" fill="none" stroke="#d5fa65" stroke-width="2" transform="rotate(-35 240 250)"/><ellipse cx="240" cy="250" rx="161" ry="83" fill="none" stroke="#d5fa65" stroke-width="2" transform="rotate(-35 240 250)"/><ellipse cx="240" cy="250" rx="169" ry="87" fill="none" stroke="#d5fa65" stroke-width="2" transform="rotate(-35 240 250)"/><ellipse cx="240" cy="250" rx="177" ry="91" fill="none" stroke="#d5fa65" stroke-width="2" transform="rotate(-35 240 250)"/></g><g fill="#d5fa65" font-family="Arial,sans-serif"><text x="32" y="48" font-size="11" letter-spacing="3">Yumo FM / SELECTED</text><text x="29" y="118" font-size="65" font-weight="800" letter-spacing="-3">PULSE</text><text x="33" y="440" font-size="12" letter-spacing="3">MIDNIGHT SIGNAL</text><text x="421" y="438" font-size="25">↗</text></g></svg>